<?xml version="1.0" encoding="UTF-8"?>
<!DOCTYPE svg PUBLIC "-//W3C//DTD SVG 1.1//EN" "http://www.w3.org/Graphics/SVG/1.1/DTD/svg11.dtd">
<!-- Creator: CorelDRAW 2020 (64-Bit) -->
<svg xmlns="http://www.w3.org/2000/svg" xml:space="preserve" width="265.253mm" height="127.742mm" version="1.1" style="shape-rendering:geometricPrecision; text-rendering:geometricPrecision; image-rendering:optimizeQuality; fill-rule:evenodd; clip-rule:evenodd"
viewBox="0 0 5493.81 2645.73"
 xmlns:xlink="http://www.w3.org/1999/xlink"
 xmlns:xodm="http://www.corel.com/coreldraw/odm/2003">
 <defs>
  <style type="text/css">
   <![CDATA[
    .fil2 {fill:#FEFEFE}
    .fil0 {fill:#E43B37}
    .fil1 {fill:#363637}
   ]]>
  </style>
 </defs>
 <g id="Katman_x0020_1">
  <metadata id="CorelCorpID_0Corel-Layer"/>
  <g id="_2597972270256">
   <path class="fil0" d="M1468.3 798.13c0,17.7 -0.33,35.41 0.15,53.1 0.21,7.54 -3.96,18.05 3.44,21.93 8.15,4.28 12.94,-6.41 18.89,-10.87 7.86,-5.88 15.17,-12.5 22.69,-18.84 11.23,-9.46 17.79,-7.38 18.07,7.78 0.55,29.46 1.03,58.74 -4.76,88.09 -14.55,73.86 -33.04,147.12 -41.15,222.01 -10.02,92.45 -20.36,184.85 -32.3,277.05 -8.59,66.24 -17.02,132.65 -29.49,198.22 -16.54,86.9 -41.67,171.75 -70.53,255.44 -30.13,87.37 -63.27,173.62 -100.19,258.29 -25.79,59.15 -64.2,110.96 -103.01,162.19 -5.53,7.31 -10.94,14.76 -16.93,21.68 -6.25,7.23 -11.29,5.64 -13.7,-3.38 -2.73,-10.19 -3.76,-20.49 -1.99,-31.13 1.94,-11.61 3.43,-23.35 4.21,-35.08 0.47,-7 1.78,-16.82 -5.73,-19.41 -8.77,-3 -11.35,7.29 -14.37,13.1 -16,30.8 -33.79,60.99 -46.38,93.17 -22.03,56.34 -54.62,105.96 -91.59,152.79 -39.57,50.12 -91.43,83.92 -152.2,103.31 -42.62,13.6 -77.96,-3.79 -95.01,-46.68 -13.21,-33.24 -15.55,-68.86 -19.4,-104.02 -16.15,-147.5 21.56,-285.99 70.76,-422.55 0.88,-2.46 2.84,-4.77 2.99,-7.23 3.72,-63.52 47.54,-110.8 68.09,-167.53 7.75,-21.4 14.2,-43.94 27.93,-62.62 7.88,-10.72 15.57,-28.33 29.5,-25.14 11.74,2.7 4.2,21.01 7.21,32.01 4.43,16.26 -0.58,30.46 -7.81,45.16 -12.58,25.54 -30.67,49.07 -29.34,80.15 0.6,13.96 3.85,18.54 16.78,10.74 0.56,-0.34 1.16,-0.64 1.77,-0.86 12.74,-4.42 25.08,-18.97 39.05,-4.25 13.8,14.53 -0.84,26.94 -5.93,39.08 -31.67,75.57 -63.87,151.11 -87.55,229.49 -14.01,46.36 -17.43,95.35 -3.25,143.62 5.8,19.71 16.14,34.65 37.72,37.88 21.74,3.25 32.03,-11.88 40.43,-27.97 20.55,-39.35 28.41,-82.83 39.29,-125.26 29.31,-114.24 55.08,-229.3 76.81,-345.21 24.86,-132.6 48.43,-265.45 73.63,-398 10.02,-52.7 22.91,-104.86 34.55,-157.24 0.71,-3.19 1.86,-6.28 2.83,-9.41 2.7,-8.73 -0.23,-15.07 -7.6,-20.27 -8.69,-6.13 -13.39,0.51 -18.32,5.35 -39.81,38.98 -80.19,77.41 -119.02,117.33 -68.07,70 -135.47,140.67 -202.6,211.58 -67.19,70.97 -125.97,149.14 -189.54,223.21 -20.91,24.36 -42.05,48.52 -63.27,72.63 -41.08,46.65 -95.6,65.12 -154.95,71.9 -30.63,3.49 -46.03,-11.35 -45.94,-41.89 0.1,-33.73 -15.55,-63.34 -23.96,-94.79 -17.07,-63.88 -35.63,-127.37 -54.23,-190.85 -7.79,-26.56 -19.84,-51.87 -36.11,-73.91 -16.84,-22.8 -17.5,-45.1 -9.48,-70.35 16.07,-50.56 32.13,-101.14 46.86,-152.09 44.4,-153.55 88.08,-307.3 132.2,-460.93 22.06,-76.78 44.68,-153.4 66.56,-230.24 4.65,-16.33 7.55,-33.19 10.6,-49.92 1.34,-7.35 -0.31,-14.9 -7.02,-19.29 -7.13,-4.68 -14.02,-0.71 -20.17,3.04 -22.79,13.89 -39.97,33.57 -56.01,54.5 -36.41,47.5 -88.19,75.53 -137.25,106.76 -14.23,9.05 -42.7,-3.51 -58.65,-22 -13.51,-15.66 -12.92,-30.27 0.55,-45.52 4.09,-4.63 11.33,-10.18 7.57,-16.7 -4.49,-7.8 -12.98,-2.31 -19.81,-1.83 -12.34,0.86 -20.1,9.58 -27.58,17.49 -13.98,14.79 -24.61,6.87 -34.28,-4.19 -11.45,-13.1 3.72,-16.35 9.83,-21.97 8.8,-8.09 16.73,-16.65 22.06,-27.35 2.37,-4.75 4.17,-10.07 -0.11,-14.69 -4.22,-4.56 -9.81,-3.45 -14.69,-1.53 -18.07,7.12 -32.44,19.46 -45.82,33.18 -9.6,9.84 -19.15,19.79 -29.38,28.93 -10.07,8.99 -22.29,11.02 -34.97,6.47 -12.03,-4.31 -18.1,-10 -17.99,-16.9 0.09,-5.03 3.47,-10.72 10.26,-16.98 37.23,-34.4 66.76,-75.62 101.32,-112.38 58.02,-61.73 123.1,-115.85 185.23,-173.13 67.43,-62.16 136.12,-123.01 205.52,-182.98 79.29,-68.52 156.98,-139.12 243.72,-198.49 28.28,-19.37 41.06,-17.29 64.3,8.17 25.41,27.85 44.31,59.96 60.91,93.59 4.22,8.53 3.63,16.09 -0.8,24.23 -11.62,21.28 -23.1,42.64 -34.11,64.23 -2.73,5.36 -8.69,11.31 -2.7,17.9 6.41,7.05 14.47,5.45 21.72,1.71 9.86,-5.1 19.53,-10.66 28.77,-16.8 17.7,-11.76 29.88,-8.53 38.91,11.06 4.21,9.12 5.3,18.39 4.24,28.64 -9.83,95.45 -32.34,188.13 -57.87,280.41 -40.52,146.44 -79.77,293.23 -118.32,440.2 -29.57,112.74 -59.49,225.41 -85.11,339.14 -4.32,19.17 -8.82,38.43 -7.76,58.27 1.06,19.75 11.69,27.14 30.39,20.57 16.88,-5.94 31.76,-15.51 43.65,-29.23 117.14,-135.22 233.66,-270.93 338.57,-416.09 59.49,-82.32 119.19,-164.48 178.84,-246.7 18.65,-25.71 40.19,-48.29 68.07,-64.33 35.62,-20.48 64.08,-14.66 89.34,17.94 14.04,18.12 28.39,36.1 43.8,53.03 13.26,14.56 18.95,30.52 17.64,50.08 -1.1,16.31 -0.23,32.76 -0.23,49.15z"/>
   <path class="fil0" d="M5493.26 624.85c2.29,84.94 -2.41,166.87 -18.25,247.34 -19.76,100.4 -49.95,198.1 -87.81,293.28 -24.94,62.7 -51.87,124.56 -82.07,184.94 -7.88,15.78 -19.56,27.67 -35.33,35.58 -7.57,3.78 -14.93,5.01 -21.81,-1.42 -6.47,-6.04 -4.61,-12.97 -2.15,-20.01 13.25,-37.93 36.04,-71.29 51.92,-107.96 8.85,-20.44 18.74,-40.44 27.19,-61.04 3.42,-8.34 4.76,-17.67 6.07,-26.69 0.87,-5.84 0.12,-12.25 -6.15,-15.37 -5.46,-2.71 -10.42,0.18 -14.39,3.64 -6.39,5.57 -12.43,11.57 -18.31,17.67 -7.2,7.49 -15.83,14.57 -25.67,8.31 -11.06,-7.05 -2.86,-16.66 1.38,-24.08 42.92,-74.97 75.61,-154.06 94.49,-238.41 20.21,-90.24 33.28,-181.53 35.42,-274.16 0.08,-3.27 0.05,-6.57 -0.34,-9.82 -2.5,-20.99 -19.59,-39.08 -37.42,-39.76 -17.19,-0.66 -32.74,12.4 -36.75,34.4 -10.45,57.36 -24.93,113.77 -38.59,170.38 -34.28,141.94 -68.79,283.83 -102.86,425.83 -18.01,75.07 -40.84,149.12 -48.25,226.47 -7.07,73.66 -14.75,147.26 -21.5,220.94 -1.85,20.21 -1.67,40.68 4.78,60.41 9.73,29.81 28.6,41.71 58.81,33.98 46.69,-11.96 90.8,-30.2 128.26,-61.61 34.24,-28.71 71.52,-53.14 108.38,-78.14 6.91,-4.68 15.76,-15.18 24,-6.85 8.56,8.66 -1.38,18.06 -6.08,26.2 -4.26,7.36 -9.06,14.49 -14.33,21.14 -16.15,20.33 -21.23,41.49 -7.15,65.2 6.92,11.66 9.67,22.99 -5.8,31.26 -4.37,2.33 -8.52,7.2 -5.19,13.16 2.64,4.74 7.96,4.03 12.42,3.6 4.52,-0.42 9.28,-1.04 13.34,-2.87 10.97,-4.95 20.64,-3.42 28.64,5.27 7.9,8.56 8.51,18.89 4.68,29.47 -7.68,21.25 -20.52,39.45 -34.5,56.9 -48.14,60.1 -109.14,105.53 -171.64,148.95 -64.08,44.52 -130.31,85.71 -201.06,119.01 -60.31,28.41 -104.43,20.13 -148.23,-28.97 -48.58,-54.45 -93.51,-111.49 -119.26,-181.17 -15.08,-40.85 -15.69,-83.84 -16.51,-126.09 -1.32,-68.05 -6.74,-136 -2.48,-204.31 3.22,-51.82 10.14,-102.96 17.67,-154.1 10.95,-74.48 22.53,-148.88 35.3,-223.07 10.66,-61.96 23.95,-123.41 40.69,-184.1 30.12,-109.22 57.31,-219.19 83.9,-329.31 25.99,-107.61 39.41,-217.85 65.62,-325.25 23.89,-97.89 53.32,-194.61 100.43,-284.66 18.13,-34.67 63.3,-47.64 96.77,-28.41 14.64,8.4 15.87,21.73 12.82,35.92 -3.44,16 -8.17,31.72 -12.33,47.57 -2.57,9.85 -1.5,18.89 8.94,23.13 11.33,4.6 19.24,-1.58 23.93,-11.25 3.39,-6.98 5.38,-14.74 7.2,-22.35 2.52,-10.61 4.71,-21.88 19.01,-20.12 13.39,1.65 28.2,2.45 33.08,19.28 2.55,8.8 4.38,17.87 7.57,26.44 6.66,17.91 20.06,21.67 34.33,8.81 10.43,-9.4 18.68,-6.55 27.52,1.21 19.01,16.7 32.68,37.43 44.62,59.42 55.26,101.69 81.48,210.8 82.99,326.16 0.28,20.97 0.04,41.95 0.04,60.12z"/>
   <path class="fil0" d="M2230.7 1979.82c-9.07,17.76 -17.72,33.14 -24.9,49.2 -6.79,15.19 -13.64,13.23 -24.85,3.97 -23.6,-19.52 -35.04,-41.57 -34.07,-74.19 1.65,-55.25 1.65,-109.98 24.51,-161.82 3.38,-7.66 4,-16.53 6,-24.81 2.23,-9.17 -0.01,-17.08 -7.3,-22.94 -7.2,-5.8 -14.79,-3.4 -22.15,0.24 -14.94,7.4 -26.61,18.79 -38.29,30.36 -28.75,28.49 -44.47,66.37 -69.9,96.99 -60.47,72.82 -128.09,138.4 -204.38,194.82 -29.55,21.85 -58.37,24.52 -90.89,4.65 -37.53,-22.93 -67.98,-53.28 -97.48,-84.88 -9.89,-10.59 -11.01,-26.5 -17.59,-39.22 -32.08,-62.08 -38.68,-129.32 -43.89,-197.58 -5.46,-71.41 6.21,-141.13 15.08,-211.11 11.27,-88.94 22.82,-178.05 43.64,-265.38 30.15,-126.42 76.09,-247.75 122.91,-368.7 5.85,-15.14 24.97,-20.42 47.45,-12.63 14.2,4.91 27.69,11.84 41.49,17.89 13.07,5.74 10.87,16.84 8.53,27.01 -5.63,24.58 -8.23,49.07 -1.51,73.83 1.17,4.29 0.64,10.08 5.73,11.61 5.33,1.61 7.73,-4.05 10.81,-7.08 5.13,-5.05 9.49,-10.87 14.55,-15.99 17.55,-17.76 38.42,-20.56 60.32,-8.18 10.26,5.8 20.12,12.41 30.68,17.59 14.72,7.21 19.16,16.19 9.19,30.85 -5.11,7.51 -8,16.51 -12.52,24.48 -5.22,9.2 -5.1,17.98 2.53,25.09 8.49,7.93 14.15,-1.36 20.22,-5.19 8.86,-5.57 16.93,-12.47 25.95,-17.73 20.8,-12.13 34,-6.77 41.64,16.1 4.16,12.46 9.19,24.82 2.31,37.96 -40.27,76.86 -65.15,160.05 -98.62,239.71 -25.07,59.68 -57.32,116.37 -73.96,179.53 -6.16,23.4 -12.85,46.69 -18.5,70.21 -5.75,23.94 19.38,60.97 43,64.61 6.66,1.02 11.07,-3.44 16.09,-6.2 40.67,-22.28 63.93,-61.08 91.16,-96.2 117.8,-151.91 213.89,-318.7 325.54,-474.82 12.93,-18.07 23.53,-37.8 35.28,-56.73 6.62,-10.65 14.4,-20.34 24.32,-28.12 22.8,-17.86 33.12,-17.18 53.94,2.99 8.47,8.22 16.91,16.49 25.87,24.14 9.96,8.47 16.65,17.89 16.45,31.81 -0.25,18.35 10.17,23.71 27.17,20.85 41.79,-7.03 77.17,2.84 105.62,36.69 15.69,18.67 18.24,36.31 8.15,57.65 -19.05,40.27 -37.34,80.88 -56.28,121.21 -20.54,43.75 -28.04,91.3 -40.07,137.47 -15.82,60.76 -29.64,122.03 -44.66,183 -6.86,27.88 -5.85,56.12 -2.74,84 2.78,24.89 14.59,32.1 39.9,27.79 39.19,-6.67 68.34,-31.55 98.05,-55.29 23.03,-18.39 46.12,-36.72 69.4,-54.8 7.29,-5.66 15.28,-10.74 25.29,-7.54 15.55,4.99 18.47,24.3 3.21,35.47 -42.62,31.17 -50.47,86.37 -89.26,119.81 1.03,1.43 2.06,2.86 3.09,4.29 17.19,-2.27 34.45,-4.12 51.56,-6.95 13.96,-2.31 20.85,-0.36 14.15,15.89 -3.62,8.76 -13.24,20.27 -7.22,26.6 6.48,6.82 19.54,-0.59 29.72,-1.85 6.83,-0.83 15.34,-7.46 20.08,-0.71 4.84,6.87 -4.62,12.35 -7.55,18.59 -27.68,58.85 -79.6,94.68 -128.17,133.1 -78.64,62.21 -162.44,117.26 -245.75,172.98 -20.34,13.6 -38.81,15.18 -60.17,2.64 -30.08,-17.65 -57.75,-38.46 -85.06,-59.92 -9.88,-7.78 -11.92,-17.29 -9.96,-29.62 3.93,-24.75 13.78,-49.86 -2.89,-77.47z"/>
   <path class="fil0" d="M4326.94 1275.22c0.24,-8.22 -1.41,-16.18 -5.14,-23 -17.54,-32.13 -35.18,-64.25 -53.84,-95.74 -6.61,-11.16 -18.11,-13.86 -31.13,-10.49 -11.59,3.01 -19.15,10.71 -26.3,19.43 -65.02,79.3 -116.44,165.62 -142.38,266.08 -10.15,39.29 -22.97,77.85 -25.27,118.72 -0.36,6.36 -5.07,17.92 6.1,16.67 21.83,-2.43 44.48,-3.89 63.75,-17.2 8.21,-5.66 7.44,-10.12 -0.66,-14.02 -8.83,-4.26 -18.03,-7.7 -27.06,-11.54 -7.23,-3.08 -15.5,-5.6 -15.86,-15.26 -0.3,-8.43 6.28,-12.41 12.78,-15.85 17.94,-9.48 36.17,-18.43 53.8,-28.47 7.95,-4.54 24.64,-2.37 22.51,-13.55 -1.79,-9.31 -17.28,-3.45 -26.6,-4.81 -8.21,-1.21 -18.05,1.12 -22.24,-8.71 -4.15,-9.75 -1.58,-19.12 4.12,-27.93 6.71,-10.37 16.96,-16.2 27.35,-21.75 44.5,-23.79 90.43,-44.38 137.66,-62.18 23.94,-9.02 45.72,-20.77 48.42,-50.37zm-621.24 425.86c-1.02,-101.16 9.83,-193.57 54.83,-276.36 83.5,-153.65 179.46,-299.08 309.48,-418.64 47.48,-43.66 98.14,-83.95 159.79,-105.5 52.45,-18.33 106.31,-32.8 162.21,-37.53 36.59,-3.08 68.94,9.28 98.19,28.81 63.29,42.23 114.75,95.91 146.21,166.03 53.53,119.33 23.8,306.6 -137.65,391.59 -130.45,68.68 -266.11,123.34 -407.66,163.78 -48.38,13.83 -48.52,13.34 -45.09,64.2 4.48,66.34 71.99,130.67 141.02,133.48 72.69,2.97 141.72,-9.54 206.41,-45.5 45.72,-25.4 91.84,-50.14 139.56,-72.17 35.2,-16.25 65.56,-43.01 97.94,-65.29 5.39,-3.71 10.03,-8.53 16.96,-9.3 11.81,-1.34 20.47,4.42 26.6,13.5 6.34,9.37 -0.93,16.05 -6.7,22.19 -13.9,14.82 -28.31,29.16 -42.14,44.06 -4.7,5.06 -12.04,11.21 -6.74,18.51 4.86,6.69 11.91,0.7 17.81,-1.49 3.69,-1.38 7.38,-2.73 11,-4.25 6.39,-2.69 12.89,-8.55 18.98,0.18 5.11,7.32 4.84,15.37 -0.38,22.06 -10.09,12.87 -21.56,24.67 -31.49,37.66 -6.43,8.41 -20.37,17.45 -13.62,27.7 7.1,10.78 18.79,-0.98 28.01,-4.41 8.83,-3.27 15.12,-1.45 20.39,6.12 6.29,9.04 2.36,16.09 -4.13,22.61 -27.82,27.91 -59.25,51.62 -89.45,76.8 -95.83,79.89 -209.4,128.71 -319.86,182.88 -43.44,21.31 -86.94,42.47 -135.67,50.8 -61.09,10.46 -119.81,4.74 -172.95,-27.06 -69.96,-41.87 -134.21,-91.2 -184.5,-156.95 -28.52,-37.26 -42.02,-79.66 -48.25,-124.91 -5.98,-43.48 -11.27,-87.13 -9.13,-123.62z"/>
   <path class="fil0" d="M3578.34 1830.08c14.72,-3.88 29.53,-7.41 44.1,-11.8 6.52,-1.97 13.12,-9.37 18.82,-0.37 5.15,8.15 3.03,16.61 -4.23,23.02 -12.75,11.29 -25.62,22.46 -38.69,33.38 -114.16,95.38 -239.43,174.03 -370.62,243.34 -80.55,42.56 -161.25,33.71 -234.46,-15.31 -65.83,-44.09 -123.64,-99.08 -175.97,-159.14 -11.95,-13.74 -21.24,-29.15 -21.88,-47.35 -1.77,-51.01 -1.98,-102.09 -3.3,-153.12 -1.5,-58.79 16.75,-113.73 32.66,-169.04 22.83,-79.35 48.03,-157.91 86.74,-231.34 19.11,-36.24 47.57,-65.75 72.1,-98.03 45.57,-59.94 88.67,-122.12 141.05,-176.41 62.82,-65.12 128.4,-127.48 209.68,-170.07 55.41,-29.03 113.57,-33.87 173.74,-18.42 36.33,9.33 63.01,30.52 80.05,64.28 14.46,28.65 30.04,56.73 44.99,85.14 10.59,20.09 14.74,41.46 15.69,64.25 2.85,68.8 1.19,137.41 -4.11,206.02 -1.09,14.16 -5.59,24.81 -20.25,27.07 -13.47,2.08 -17.18,-9.27 -21.39,-18.97 -3.94,-9.1 -6.17,-18.52 -7.12,-28.45 -0.74,-7.74 -2.62,-15.47 -4.86,-22.94 -2.69,-8.92 -8.39,-15.18 -18.67,-13.84 -11.46,1.48 -15.35,9.95 -14.47,19.92 2.6,29.34 5.84,58.63 9.18,87.89 0.91,7.99 3.22,16.05 -6.66,20.03 -8.5,3.43 -15.05,-0.28 -21.12,-6.23 -10.47,-10.27 -17.07,-23.11 -24.56,-35.42 -2.26,-3.72 -4.21,-9.05 -9.86,-8.31 -5.69,0.75 -6.09,6.27 -7.11,10.58 -2.89,12.09 -5.01,24.3 -11.3,35.4 -8.05,14.18 -18.6,16.45 -30.37,5.89 -8.19,-7.34 -14.67,-16.64 -21.66,-25.25 -2.77,-3.42 -3.99,-9.18 -9.89,-7.51 -4.37,1.25 -5.04,5.9 -4.96,9.81 0.97,44.66 -26.16,78.67 -44.05,116.15 -6.11,12.8 -14.61,11.38 -22.94,1.97 -6.39,-7.22 -7.97,-16.23 -8.48,-25.61 -3.84,-71.3 -8.22,-142.57 -7.75,-214.04 0.1,-14.2 2.86,-32.76 -12.98,-38.12 -16.98,-5.75 -23.53,13.44 -31.74,24.08 -39.48,51.28 -62.24,109.87 -74.63,173.14 -8.83,45.04 -22.02,89.04 -38.57,131.91 -21.58,55.88 -12.99,113.81 -12.3,171.21 0.08,6.53 1.36,13.03 1.67,19.57 2.67,58.15 36.08,91.37 95.04,94.55 31.41,1.7 61.22,-6.05 90.24,-16.46 76.74,-27.5 146.13,-70.74 220.11,-104.21 9.32,-4.22 16.92,-12.25 25.24,-18.61 5.93,-4.53 12.22,-7.64 19.97,-6.42 5.2,0.82 11.35,1.1 13.63,6.35 2.74,6.29 -3.57,8.94 -7.32,12.29 -16.59,14.83 -35.04,27.68 -49.1,45.2 -3.16,3.94 -7.9,8.46 -5.42,13.88 3.12,6.8 10.13,4.76 15.76,4.01 11.9,-1.59 22.55,-6.62 32.64,-12.98 6.82,-4.3 13.77,-8.87 20.66,-0.11 5.86,7.45 10.78,15.02 4.95,24.94 -8.72,14.85 -19.56,27.8 -32.75,38.91 -12.84,10.82 -25.03,22.34 -33.21,39.71z"/>
   <path class="fil0" d="M2307.91 569.13c-3.71,47.06 -21.08,93.13 -36.08,139.8 -0.6,1.86 -1.89,3.59 -2.14,5.47 -10.13,74.98 -70.28,100.39 -127.94,126.59 -30.4,13.82 -57.39,-1.1 -81.04,-20.79 -9.53,-7.94 -6.87,-20.66 -9.89,-31.14 -4.43,-15.41 -3.74,-37.04 -21.62,-40.76 -18.21,-3.78 -25.61,16.91 -35.28,29.48 -6.76,8.8 -12.43,18.46 -18.4,27.87 -5.7,8.98 -12,11.3 -20.6,3.3 -12.67,-11.8 -23.53,-24.61 -27.25,-42.16 -7.1,-33.58 -10.38,-67.32 -3.35,-101.32 12.08,-58.3 24.64,-116.51 36.49,-174.86 6.61,-32.57 24.58,-55.62 54.33,-70.11 27.44,-13.37 55.81,-22.28 86.76,-21.7 29.58,0.56 37.93,6.91 45.17,35.64 3.42,13.55 2.46,27.34 2.61,41.05 0.12,10.5 4.36,11.2 11.81,5.54 12.64,-9.61 22.75,-21.39 31.85,-34.41 33.81,-48.43 58.62,-46.64 82.91,7.29 16.08,35.71 30.67,72.36 31.65,115.21z"/>
   <path class="fil0" d="M2492.86 765.43c-15.5,19.89 -26.11,40.43 -43.2,56.14 -20.92,19.26 -38.26,17.81 -52.86,-6.82 -13.3,-22.46 -20.64,-47.38 -16.86,-73.4 7.16,-49.25 16.3,-98.2 24.44,-147.32 5.45,-32.87 8.02,-66.37 20.68,-97.67 16.92,-41.81 44.61,-72 90.15,-82.84 22.74,-5.42 44.12,-0.02 65.45,7.13 11.11,3.72 14.37,12.56 15.83,22.72 1.77,12.3 2.99,24.68 5.1,36.92 0.97,5.6 0.47,13.52 6.43,15.54 6.44,2.18 9.89,-5.27 13.56,-9.44 10.8,-12.3 21.07,-25.07 31.5,-37.7 21.78,-26.38 54,-22.47 68.7,8.94 9.15,19.56 15.5,40.52 25.66,59.48 13.41,25.03 4.19,50.03 3.71,75.14 -1.4,72.91 -26.33,138.16 -64.31,199.24 -7.88,12.68 -19.06,21.5 -32.56,27.47 -31.44,13.88 -63.95,22.66 -98.77,21.96 -31.91,-0.66 -46.04,-11.68 -52.67,-43.61 -2.12,-10.2 -3.5,-20.55 -9.96,-31.88z"/>
   <path class="fil1" d="M5354.15 2645.73l-3810.38 0c-41.84,0 -76.08,-34.24 -76.08,-76.07l0 -246.92c0,-41.85 34.23,-76.08 76.08,-76.08l3810.38 0c41.84,0 76.07,34.23 76.07,76.08l0 246.92c0,41.83 -34.23,76.07 -76.08,76.07z"/>
   <path class="fil2" d="M1682.76 2504.8c20.26,0 32.56,-7.95 32.56,-23.15l0 -0.49c0,-14.23 -11.33,-22.66 -34.73,-22.66l-47.03 0 0 46.3 49.2 0zm-8.68 -71.38c19.05,0 31.83,-7.47 31.83,-22.91l0 -0.48c0,-13.26 -10.61,-21.46 -29.67,-21.46l-42.68 0 0 44.85 40.52 0zm-69.7 -71.15l75.74 0c19.29,0 34.48,5.31 44.13,14.96 7.47,7.47 11.33,16.64 11.33,27.98l0 0.47c0,20.27 -11.57,31.12 -24.12,37.63 19.78,6.75 33.52,18.08 33.52,41l0 0.48c0,30.15 -24.84,46.3 -62.46,46.3l-78.15 0 0 -168.83z"/>
   <path class="fil2" d="M1880.77 2464.04l-29.17 -67.53 -28.95 67.53 58.12 0zm-42.44 -102.99l27.5 0 74.28 170.03 -31.35 0 -17.13 -40.76 -79.82 0 -17.37 40.76 -30.39 0 74.28 -170.03z"/>
   <polygon class="fil2" points="1969.06,2362.26 1998.72,2362.26 1998.72,2432.45 2079.27,2432.45 2079.27,2362.26 2108.94,2362.26 2108.94,2531.09 2079.27,2531.09 2079.27,2459.95 1998.72,2459.95 1998.72,2531.09 1969.06,2531.09 "/>
   <path class="fil2" d="M2194.56 2560.28l18.81 -27.98c-40.27,-7.47 -68.5,-42.45 -68.5,-85.14l0 -0.48c0,-48 35.94,-87.31 87.07,-87.31 31.11,0 49.92,10.86 66.08,26.29l-19.05 21.95c-13.5,-12.55 -27.98,-20.98 -47.27,-20.98 -32.32,0 -55.72,26.54 -55.72,59.57l0 0.48c0,33.05 23.4,60.05 55.72,60.05 20.74,0 34.01,-8.44 48.47,-21.94l19.06 19.29c-16.64,17.37 -34.73,28.47 -63.19,29.67l-15.92 37.38 -25.57 -10.85z"/>
   <polygon class="fil2" points="2330.35,2362.26 2455.52,2362.26 2455.52,2388.8 2360.02,2388.8 2360.02,2432.69 2444.67,2432.69 2444.67,2459.22 2360.02,2459.22 2360.02,2504.57 2456.73,2504.57 2456.73,2531.09 2330.35,2531.09 "/>
   <polygon class="fil2" points="2564.3,2362.26 2595.89,2362.26 2647.26,2442.1 2698.63,2362.26 2730.23,2362.26 2730.23,2531.09 2700.57,2531.09 2700.57,2410.02 2647.26,2489.61 2646.3,2489.61 2593.48,2410.5 2593.48,2531.09 2564.3,2531.09 "/>
   <path class="fil2" d="M2911.6 2447.16l0 -0.48c0,-32.8 -23.88,-60.05 -57.4,-60.05 -33.53,0 -56.92,26.77 -56.92,59.57l0 0.48c0,32.81 23.87,60.05 57.39,60.05 33.52,0 56.93,-26.77 56.93,-59.57zm-145.44 0l0 -0.48c0,-47.51 36.66,-87.31 88.51,-87.31 51.86,0 88.04,39.31 88.04,86.82l0 0.48c0,47.51 -36.67,87.31 -88.51,87.31 -51.86,0 -88.04,-39.31 -88.04,-86.82z"/>
   <path class="fil2" d="M3057.04 2504.8c20.25,0 32.56,-7.95 32.56,-23.15l0 -0.49c0,-14.23 -11.34,-22.66 -34.74,-22.66l-47.03 0 0 46.3 49.2 0zm-8.68 -71.38c19.05,0 31.83,-7.47 31.83,-22.91l0 -0.48c0,-13.26 -10.61,-21.46 -29.67,-21.46l-42.68 0 0 44.85 40.52 0zm-69.7 -71.15l75.73 0c19.29,0 34.49,5.31 44.14,14.96 7.47,7.47 11.33,16.64 11.33,27.98l0 0.47c0,20.27 -11.57,31.12 -24.11,37.63 19.79,6.75 33.53,18.08 33.53,41l0 0.48c0,30.15 -24.85,46.3 -62.46,46.3l-78.15 0 0 -168.83z"/>
   <polygon class="fil2" points="3147.49,2498.06 3179.56,2498.06 3179.56,2531.09 3147.49,2531.09 "/>
   <path class="fil2" d="M3278.69 2506.49l17.84 -21.22c16.16,13.99 32.32,21.94 53.31,21.94 18.33,0 29.9,-8.44 29.9,-21.22l0 -0.48c0,-12.06 -6.75,-18.57 -38.1,-25.81 -35.93,-8.69 -56.19,-19.3 -56.19,-50.41l0 -0.48c0,-28.94 24.12,-48.96 57.64,-48.96 24.6,0 44.14,7.47 61.26,21.23l-15.91 22.43c-15.2,-11.33 -30.39,-17.37 -45.83,-17.37 -17.37,0 -27.49,8.92 -27.49,20.02l0 0.48c0,13.02 7.72,18.81 40.04,26.53 35.69,8.68 54.26,21.47 54.26,49.44l0 0.48c0,31.59 -24.84,50.41 -60.29,50.41 -25.81,0 -50.17,-8.93 -70.42,-27.02z"/>
   <path class="fil2" d="M3543.02 2464.04l-29.19 -67.53 -28.93 67.53 58.12 0zm-42.44 -102.99l27.49 0 74.28 170.03 -31.34 0 -17.13 -40.76 -79.84 0 -17.36 40.76 -30.39 0 74.29 -170.03z"/>
   <polygon class="fil2" points="3631.3,2362.26 3658.8,2362.26 3749.24,2479 3749.24,2362.26 3778.43,2362.26 3778.43,2531.09 3753.58,2531.09 3660.48,2410.99 3660.48,2531.09 3631.3,2531.09 "/>
   <polygon class="fil2" points="3879.73,2362.26 3912.53,2362.26 3963.42,2492.02 4014.06,2362.26 4046.15,2362.26 3975.95,2532.3 3949.91,2532.3 "/>
   <polygon class="fil2" points="4075.09,2362.26 4200.26,2362.26 4200.26,2388.8 4104.75,2388.8 4104.75,2432.69 4189.41,2432.69 4189.41,2459.22 4104.75,2459.22 4104.75,2504.57 4201.47,2504.57 4201.47,2531.09 4075.09,2531.09 "/>
   <polygon class="fil2" points="4350.52,2389.77 4296.97,2389.77 4296.97,2362.26 4433.97,2362.26 4433.97,2389.77 4380.42,2389.77 4380.42,2531.09 4350.52,2531.09 "/>
   <path class="fil2" d="M4467.01 2362.26l29.67 0 0 168.83 -29.67 0 0 -168.83zm-0.49 -41l30.87 0 0 27.01 -30.87 0 0 -27.01z"/>
   <path class="fil2" d="M4534.3 2447.16l0 -0.48c0,-48 35.93,-87.31 87.06,-87.31 31.12,0 49.93,10.86 66.09,26.29l-19.05 21.95c-13.51,-12.55 -27.98,-20.98 -47.27,-20.98 -32.32,0 -55.71,26.54 -55.71,59.57l0 0.48c0,33.05 23.39,60.05 55.71,60.05 20.74,0 34.01,-8.44 48.47,-21.94l19.06 19.29c-17.6,18.34 -36.9,29.91 -68.5,29.91 -49.19,0 -85.86,-38.34 -85.86,-86.82z"/>
   <polygon class="fil2" points="4714.47,2498.06 4746.53,2498.06 4746.53,2531.09 4714.47,2531.09 "/>
   <path class="fil2" d="M4959.26 2464.04l-29.19 -67.53 -28.94 67.53 58.13 0zm-42.44 -102.99l27.49 0 74.29 170.03 -31.36 0 -17.13 -40.76 -79.83 0 -17.36 40.76 -30.38 0 74.28 -170.03z"/>
   <polygon class="fil2" points="5042.23,2498.06 5074.31,2498.06 5074.31,2531.09 5042.23,2531.09 "/>
   <path class="fil2" d="M5139.19 2560.28l18.82 -27.74c-20.74,-2.41 -40.29,-11.1 -56.92,-26.06l17.83 -21.22c16.17,13.99 32.32,21.94 53.31,21.94 18.33,0 29.91,-8.44 29.91,-21.22l0 -0.48c0,-12.06 -6.76,-18.57 -38.11,-25.81 -35.94,-8.69 -56.2,-19.3 -56.2,-50.41l0 -0.48c0,-28.94 24.12,-48.96 57.64,-48.96 24.6,0 44.14,7.47 61.27,21.23l-15.92 22.43c-15.19,-11.33 -30.39,-17.37 -45.82,-17.37 -17.37,0 -27.5,8.92 -27.5,20.02l0 0.48c0,13.02 7.72,18.81 40.05,26.53 35.69,8.68 54.25,21.47 54.25,49.44l0 0.48c0,28.7 -20.49,46.78 -50.89,49.93l-16.15 38.1 -25.57 -10.85z"/>
   <polygon class="fil2" points="5261.48,2498.06 5293.55,2498.06 5293.55,2531.09 5261.48,2531.09 "/>
  </g>
 </g>
</svg>
